<svg width="24" height="24" viewBox="0 0 24 24" fill="none" xmlns="http://www.w3.org/2000/svg">
<path d="M11.1113 3.11133H3.50634C2.93006 3.11133 2.37739 3.34025 1.96991 3.74774C1.56242 4.15522 1.3335 4.70789 1.3335 5.28417V20.494C1.3335 21.0703 1.56242 21.623 1.96991 22.0305C2.37739 22.438 2.93006 22.6669 3.50634 22.6669H18.7162C19.2925 22.6669 19.8452 22.438 20.2526 22.0305C20.6601 21.623 20.889 21.0703 20.889 20.494V12.8891" stroke="#3B4541" stroke-width="2" stroke-linecap="round" stroke-linejoin="round"/>
<path d="M19.0194 1.95901C19.42 1.55834 19.9635 1.33325 20.5301 1.33325C21.0967 1.33325 21.6401 1.55834 22.0408 1.95901C22.4415 2.35968 22.6666 2.9031 22.6666 3.46973C22.6666 4.03636 22.4415 4.57978 22.0408 4.98045L12.4729 14.5483L8.44434 15.5555L9.45148 11.5269L19.0194 1.95901Z" stroke="#3B4541" stroke-width="2" stroke-linecap="round" stroke-linejoin="round"/>
</svg>
