<svg width="18" height="18" viewBox="0 0 18 18" fill="none" xmlns="http://www.w3.org/2000/svg">
<path d="M8.75 9.5C9.16421 9.5 9.5 9.16421 9.5 8.75C9.5 8.33579 9.16421 8 8.75 8C8.33579 8 8 8.33579 8 8.75C8 9.16421 8.33579 9.5 8.75 9.5Z" stroke="#3B4541" stroke-width="1.5" stroke-linecap="round" stroke-linejoin="round"/>
<path d="M8.75 2.5C8.33579 2.5 8 2.16421 8 1.75C8 1.33579 8.33579 1 8.75 1C9.16421 1 9.5 1.33579 9.5 1.75C9.5 2.16421 9.16421 2.5 8.75 2.5Z" stroke="#3B4541" stroke-width="1.5" stroke-linecap="round" stroke-linejoin="round"/>
<path d="M8.75 16.5C9.16421 16.5 9.5 16.1642 9.5 15.75C9.5 15.3358 9.16421 15 8.75 15C8.33579 15 8 15.3358 8 15.75C8 16.1642 8.33579 16.5 8.75 16.5Z" stroke="#3B4541" stroke-width="1.5" stroke-linecap="round" stroke-linejoin="round"/>
</svg>
