<svg xmlns="http://www.w3.org/2000/svg" viewBox="0 0 2419.69 294"><defs><style>.cls-1{fill:none;stroke:#afc97d;stroke-miterlimit:10;stroke-width:5px;}.cls-2{fill:#3b4541;}.cls-3{fill:#338be2;}</style></defs><g id="Isolation_Mode" data-name="Isolation Mode"><ellipse class="cls-1" cx="123.48" cy="223.06" rx="93.03" ry="26.27"/><ellipse class="cls-1" cx="123.48" cy="223.06" rx="60.08" ry="16.97"/><rect class="cls-2" x="695.29" y="77.4" width="6.41" height="158.25"/><path class="cls-3" d="M123.48,68.94,163.26,165a43.21,43.21,0,1,1-79.7.32Z"/><path class="cls-2" d="M303.16,115.21V186H292.35l-39-47.91V186h-13V115.21h10.82l39,47.91V115.21Z"/><path class="cls-2" d="M371.49,132l-25.27,58.32q-3.54,8.79-8.59,12.38a20.6,20.6,0,0,1-12.23,3.59,25.28,25.28,0,0,1-8-1.31,17.69,17.69,0,0,1-6.46-3.64L316,192a13.92,13.92,0,0,0,4.29,2.73,13.26,13.26,0,0,0,5,1,8.65,8.65,0,0,0,5.51-1.72,15.22,15.22,0,0,0,4-5.76l.91-2.12L312.16,132H325.3l17,39.92L359.36,132Z"/><path class="cls-2" d="M401.41,162.82l-9.4,8.89V186H379.37V111H392v45.29L418.19,132h15.16l-22.54,22.64L435.47,186H420.11Z"/><path class="cls-2" d="M465.7,162.82l-9.41,8.89V186H443.66V111h12.63v45.29L482.47,132h15.17L475.1,154.63,499.76,186H484.39Z"/><path class="cls-2" d="M556.26,163H513.91a14.71,14.71,0,0,0,5.81,9.45A19.11,19.11,0,0,0,531.4,176a19.66,19.66,0,0,0,14.65-5.87l6.78,7.79a22.94,22.94,0,0,1-9.2,6.57,36.46,36.46,0,0,1-28.2-1.32A25.48,25.48,0,0,1,505,173.28,27.83,27.83,0,0,1,501.27,159a28.3,28.3,0,0,1,3.59-14.2,25.43,25.43,0,0,1,10-9.85,29,29,0,0,1,14.35-3.54,28.24,28.24,0,0,1,14.1,3.49,24.68,24.68,0,0,1,9.71,9.8,29.78,29.78,0,0,1,3.48,14.61C556.46,160.15,556.4,161.4,556.26,163Zm-37.35-17.94a15.11,15.11,0,0,0-5.1,9.55h30.63a14.85,14.85,0,0,0-5-9.5,15,15,0,0,0-10.31-3.64A15.27,15.27,0,0,0,518.91,145.08Z"/><path class="cls-2" d="M615.6,137.34q6.15,6,6.16,17.69V186H609.13V156.65q0-7.08-3.34-10.66t-9.5-3.59q-7,0-11,4.19t-4,12.08V186H568.59V132h12v7a19.79,19.79,0,0,1,7.89-5.66,28.31,28.31,0,0,1,10.71-1.92Q609.43,131.38,615.6,137.34Z"/><path class="cls-2" d="M827.28,186.11l-16.17-22.74a51.82,51.82,0,0,1-5.66.31h-19v22.43H779V115.36h26.48q13.54,0,21.23,6.47t7.68,17.79a23,23,0,0,1-4.2,14,23.24,23.24,0,0,1-12,8.24l17.28,24.25Zm-6-33.45q5.55-4.65,5.56-13,0-8.6-5.56-13.19t-16.07-4.6h-18.8v35.48h18.8Q815.75,157.31,821.32,152.66Z"/><path class="cls-2" d="M850.43,119.81a5,5,0,0,1-1.52-3.64,4.86,4.86,0,0,1,1.52-3.54,5.09,5.09,0,0,1,3.74-1.52,5.17,5.17,0,0,1,3.74,1.47,4.69,4.69,0,0,1,1.51,3.49,5.29,5.29,0,0,1-9,3.74Zm.1,13.14h7.18v53.16h-7.18Z"/><path class="cls-2" d="M879.59,184.75a26.63,26.63,0,0,1-9.25-4.7l3.24-5.66a27.35,27.35,0,0,0,8.38,4.3,33.42,33.42,0,0,0,10.52,1.66q7.28,0,10.76-2.27a7.24,7.24,0,0,0,3.49-6.42,5.78,5.78,0,0,0-1.92-4.6,12.91,12.91,0,0,0-4.85-2.53,70.49,70.49,0,0,0-7.79-1.66,90.1,90.1,0,0,1-10.41-2.48,15.18,15.18,0,0,1-6.72-4.3c-1.85-2-2.78-4.81-2.78-8.39a13.14,13.14,0,0,1,5.56-10.91q5.56-4.24,15.47-4.25a40.2,40.2,0,0,1,10.31,1.37,28.32,28.32,0,0,1,8.49,3.59L909,143.26a26.77,26.77,0,0,0-15.66-4.55q-6.88,0-10.37,2.42a7.44,7.44,0,0,0-3.48,6.37,6.26,6.26,0,0,0,2,4.85,12,12,0,0,0,4.9,2.68,75.2,75.2,0,0,0,8.09,1.77,93.75,93.75,0,0,1,10.21,2.43,15,15,0,0,1,6.57,4.14c1.82,2,2.73,4.65,2.73,8.09a12.86,12.86,0,0,1-5.82,11.07q-5.8,4.09-16.12,4.09A40.71,40.71,0,0,1,879.59,184.75Z"/><path class="cls-2" d="M970.81,133l-23.65,53.16h-7.38L916.23,133h7.48l19.91,45.28L963.74,133Z"/><path class="cls-2" d="M987.29,183.13a25.33,25.33,0,0,1-9.7-9.65,29.26,29.26,0,0,1,0-27.9,25,25,0,0,1,9.7-9.6,29.6,29.6,0,0,1,27.7,0,24.8,24.8,0,0,1,9.65,9.6,29.7,29.7,0,0,1,0,27.9,25.13,25.13,0,0,1-9.65,9.65,29.23,29.23,0,0,1-27.7,0Zm24-5.46a18,18,0,0,0,7-7.32,24.38,24.38,0,0,0,0-21.63,18,18,0,0,0-7-7.33,21.29,21.29,0,0,0-20.32,0,18.31,18.31,0,0,0-7.08,7.33,24,24,0,0,0,0,21.63,18.29,18.29,0,0,0,7.08,7.32,21.29,21.29,0,0,0,20.32,0Z"/><path class="cls-2" d="M1042.78,111.11H1050v75h-7.18Z"/><path class="cls-2" d="M1070,111.11h7.18v75H1070Z"/><path class="cls-2" d="M1131.73,137.75q5.57,5.2,5.56,15.41v33h-6.87v-8.28a16.52,16.52,0,0,1-7.13,6.47,24.94,24.94,0,0,1-11.17,2.32q-8.89,0-14.15-4.25a13.72,13.72,0,0,1-5.26-11.22,13.59,13.59,0,0,1,4.91-10.91q4.89-4.14,15.61-4.15h16.88v-3.23q0-6.87-3.84-10.46t-11.22-3.59a28.55,28.55,0,0,0-9.7,1.67,24.4,24.4,0,0,0-8,4.6l-3.23-5.36a28.73,28.73,0,0,1,9.7-5.31,38,38,0,0,1,11.93-1.87Q1126.17,132.54,1131.73,137.75Zm-8.09,40.43a16.53,16.53,0,0,0,6.47-8v-8.69h-16.67q-13.65,0-13.65,9.5a8.69,8.69,0,0,0,3.54,7.33q3.54,2.68,9.9,2.68A18.9,18.9,0,0,0,1123.64,178.18Z"/><path class="cls-2" d="M1199.81,138.35q5.91,5.82,5.91,16.94v30.82h-7.18V156q0-8.28-4.14-12.63T1182.57,139q-8.58,0-13.59,5.11t-5,14.1v27.89h-7.18V133h6.87v9.8a20.07,20.07,0,0,1,8.14-7.53,26.1,26.1,0,0,1,12.08-2.68Q1193.9,132.54,1199.81,138.35Z"/><path class="cls-2" d="M1333.74,138.3q5.7,5.76,5.71,17v30.82h-7.18V156q0-8.28-4-12.63T1317,139q-8.29,0-13,5.11t-4.75,14.1v27.89H1292V156q0-8.28-4-12.63c-2.66-2.9-6.46-4.35-11.37-4.35q-8.19,0-13,5.11t-4.8,14.1v27.89h-7.18V133h6.87v9.7a19.22,19.22,0,0,1,7.89-7.48,24.85,24.85,0,0,1,11.62-2.63,22.84,22.84,0,0,1,11.58,2.83,17.43,17.43,0,0,1,7.32,8.39,20.81,20.81,0,0,1,8.44-8.24,26.14,26.14,0,0,1,12.59-3Q1328,132.54,1333.74,138.3Z"/><path class="cls-2" d="M1405.45,161.75H1361a19,19,0,0,0,6.36,13.4q5.76,5.1,14.56,5.1a23,23,0,0,0,9.1-1.77,19.75,19.75,0,0,0,7.17-5.2l4,4.65a22.76,22.76,0,0,1-8.85,6.47,30,30,0,0,1-11.67,2.22,29.47,29.47,0,0,1-14.51-3.49,25.11,25.11,0,0,1-9.85-9.65,27.51,27.51,0,0,1-3.54-13.95,28.47,28.47,0,0,1,3.39-13.95,24.45,24.45,0,0,1,9.29-9.6,26,26,0,0,1,13.3-3.44A25.7,25.7,0,0,1,1393,136a24.43,24.43,0,0,1,9.2,9.55,28.8,28.8,0,0,1,3.33,14Zm-38.56-18.14A19.25,19.25,0,0,0,1361,156.4h37.7a19.25,19.25,0,0,0-5.91-12.79,19.54,19.54,0,0,0-25.88,0Z"/><path class="cls-2" d="M1453.26,137.75q5.55,5.2,5.56,15.41v33H1452v-8.28a16.52,16.52,0,0,1-7.13,6.47,24.94,24.94,0,0,1-11.17,2.32q-8.89,0-14.15-4.25a14.59,14.59,0,0,1-.35-22.13q4.89-4.14,15.61-4.15h16.88v-3.23q0-6.87-3.84-10.46t-11.22-3.59a28.55,28.55,0,0,0-9.7,1.67,24.4,24.4,0,0,0-8,4.6l-3.23-5.36a28.73,28.73,0,0,1,9.7-5.31,38,38,0,0,1,11.93-1.87Q1447.7,132.54,1453.26,137.75Zm-8.09,40.43a16.53,16.53,0,0,0,6.47-8v-8.69H1435q-13.64,0-13.64,9.5a8.69,8.69,0,0,0,3.54,7.33c2.35,1.79,5.66,2.68,9.9,2.68A18.9,18.9,0,0,0,1445.17,178.18Z"/><path class="cls-2" d="M1480.2,184.75a26.54,26.54,0,0,1-9.25-4.7l3.23-5.66a27.53,27.53,0,0,0,8.39,4.3,33.4,33.4,0,0,0,10.51,1.66q7.29,0,10.77-2.27a7.26,7.26,0,0,0,3.49-6.42,5.78,5.78,0,0,0-1.92-4.6,12.88,12.88,0,0,0-4.86-2.53,69.73,69.73,0,0,0-7.78-1.66,90.1,90.1,0,0,1-10.41-2.48,15.18,15.18,0,0,1-6.72-4.3c-1.86-2-2.78-4.81-2.78-8.39a13.14,13.14,0,0,1,5.56-10.91q5.55-4.24,15.46-4.25a40.08,40.08,0,0,1,10.31,1.37,28.1,28.1,0,0,1,8.49,3.59l-3.13,5.76a26.78,26.78,0,0,0-15.67-4.55q-6.87,0-10.36,2.42a7.44,7.44,0,0,0-3.48,6.37,6.26,6.26,0,0,0,2,4.85,11.94,11.94,0,0,0,4.9,2.68,75.48,75.48,0,0,0,8.08,1.77,92.61,92.61,0,0,1,10.21,2.43,15,15,0,0,1,6.57,4.14c1.82,2,2.73,4.65,2.73,8.09a12.85,12.85,0,0,1-5.81,11.07q-5.81,4.09-16.12,4.09A40.71,40.71,0,0,1,1480.2,184.75Z"/><path class="cls-2" d="M1575.67,133v53.16h-6.88v-9.7a19.57,19.57,0,0,1-7.78,7.53,23.38,23.38,0,0,1-11.32,2.68q-10.41,0-16.43-5.81t-6-17V133h7.18v30.12q0,8.38,4.14,12.73t11.83,4.35q8.38,0,13.24-5.1t4.85-14.21V133Z"/><path class="cls-2" d="M1610.18,135.27a25.62,25.62,0,0,1,12.39-2.73v7l-1.72-.1q-8.4,0-13.14,5.15T1603,159v27.08h-7.18V133h6.87v10.41A17.46,17.46,0,0,1,1610.18,135.27Z"/><path class="cls-2" d="M1681.29,161.75h-44.47a19,19,0,0,0,6.37,13.4q5.76,5.1,14.55,5.1a22.93,22.93,0,0,0,9.1-1.77,19.87,19.87,0,0,0,7.18-5.2l4,4.65a22.76,22.76,0,0,1-8.85,6.47,29.92,29.92,0,0,1-11.67,2.22,29.47,29.47,0,0,1-14.51-3.49,25.11,25.11,0,0,1-9.85-9.65,27.51,27.51,0,0,1-3.54-13.95,28.47,28.47,0,0,1,3.39-13.95,24.41,24.41,0,0,1,9.3-9.6,26,26,0,0,1,13.29-3.44,25.7,25.7,0,0,1,13.24,3.44,24.43,24.43,0,0,1,9.2,9.55,28.8,28.8,0,0,1,3.33,14Zm-38.56-18.14a19.25,19.25,0,0,0-5.91,12.79h37.7a19.25,19.25,0,0,0-5.91-12.79,19.54,19.54,0,0,0-25.88,0Z"/><path class="cls-2" d="M1778.08,138.3q5.7,5.76,5.71,17v30.82h-7.18V156q0-8.28-4-12.63T1761.35,139q-8.3,0-13,5.11t-4.75,14.1v27.89h-7.18V156q0-8.28-4-12.63c-2.66-2.9-6.46-4.35-11.37-4.35q-8.19,0-13,5.11t-4.8,14.1v27.89h-7.18V133h6.87v9.7a19.22,19.22,0,0,1,7.89-7.48,24.85,24.85,0,0,1,11.62-2.63,22.78,22.78,0,0,1,11.57,2.83,17.4,17.4,0,0,1,7.33,8.39,20.81,20.81,0,0,1,8.44-8.24,26.14,26.14,0,0,1,12.59-3Q1772.37,132.54,1778.08,138.3Z"/><path class="cls-2" d="M1849.79,161.75h-44.47a19,19,0,0,0,6.36,13.4q5.76,5.1,14.56,5.1a23,23,0,0,0,9.1-1.77,19.75,19.75,0,0,0,7.17-5.2l4,4.65a22.76,22.76,0,0,1-8.85,6.47,30,30,0,0,1-11.67,2.22,29.47,29.47,0,0,1-14.51-3.49,25,25,0,0,1-9.85-9.65,27.51,27.51,0,0,1-3.54-13.95,28.47,28.47,0,0,1,3.39-13.95,24.45,24.45,0,0,1,9.29-9.6,26,26,0,0,1,13.3-3.44,25.73,25.73,0,0,1,13.24,3.44,24.43,24.43,0,0,1,9.2,9.55,28.8,28.8,0,0,1,3.33,14Zm-38.56-18.14a19.25,19.25,0,0,0-5.91,12.79H1843a19.25,19.25,0,0,0-5.91-12.79,19.54,19.54,0,0,0-25.88,0Z"/><path class="cls-2" d="M1907.56,138.35q5.91,5.82,5.91,16.94v30.82h-7.18V156q0-8.28-4.14-12.63T1890.32,139q-8.6,0-13.59,5.11t-5,14.1v27.89h-7.17V133h6.87v9.8a20,20,0,0,1,8.14-7.53,26.1,26.1,0,0,1,12.08-2.68Q1901.65,132.54,1907.56,138.35Z"/><path class="cls-2" d="M1961,182.88a13.66,13.66,0,0,1-5,2.78,20.16,20.16,0,0,1-6.21,1q-7.48,0-11.53-4t-4-11.43V139h-9.5V133h9.5V121.32h7.18V133h16.17V139h-16.17v31.74q0,4.75,2.37,7.23c1.58,1.65,3.86,2.47,6.82,2.47a13.23,13.23,0,0,0,4.3-.7,10.76,10.76,0,0,0,3.59-2Z"/><path class="cls-2" d="M2002.37,184.75a26.54,26.54,0,0,1-9.25-4.7l3.23-5.66a27.53,27.53,0,0,0,8.39,4.3,33.4,33.4,0,0,0,10.51,1.66c4.86,0,8.44-.75,10.77-2.27a7.26,7.26,0,0,0,3.49-6.42,5.81,5.81,0,0,0-1.92-4.6,13,13,0,0,0-4.86-2.53,70.24,70.24,0,0,0-7.78-1.66,90.1,90.1,0,0,1-10.41-2.48,15.18,15.18,0,0,1-6.72-4.3c-1.86-2-2.78-4.81-2.78-8.39a13.14,13.14,0,0,1,5.56-10.91q5.55-4.24,15.46-4.25a40.08,40.08,0,0,1,10.31,1.37,28.1,28.1,0,0,1,8.49,3.59l-3.13,5.76a26.78,26.78,0,0,0-15.67-4.55q-6.87,0-10.36,2.42a7.45,7.45,0,0,0-3.49,6.37,6.27,6.27,0,0,0,2,4.85,11.94,11.94,0,0,0,4.9,2.68,75.48,75.48,0,0,0,8.08,1.77,92.61,92.61,0,0,1,10.21,2.43,15,15,0,0,1,6.57,4.14c1.82,2,2.73,4.65,2.73,8.09a12.87,12.87,0,0,1-5.81,11.07q-5.82,4.09-16.12,4.09A40.71,40.71,0,0,1,2002.37,184.75Z"/><path class="cls-2" d="M2077.92,182.88a13.62,13.62,0,0,1-5,2.78,20.17,20.17,0,0,1-6.22,1c-5,0-8.83-1.35-11.52-4s-4-6.51-4-11.43V139h-9.5V133h9.5V121.32h7.17V133h16.18V139h-16.18v31.74q0,4.75,2.38,7.23c1.58,1.65,3.86,2.47,6.82,2.47a13.27,13.27,0,0,0,4.3-.7,10.86,10.86,0,0,0,3.59-2Z"/><path class="cls-2" d="M2125.53,137.75q5.56,5.2,5.56,15.41v33h-6.87v-8.28a16.52,16.52,0,0,1-7.13,6.47,24.94,24.94,0,0,1-11.17,2.32q-8.9,0-14.15-4.25a14.59,14.59,0,0,1-.35-22.13q4.89-4.14,15.61-4.15h16.88v-3.23q0-6.87-3.84-10.46t-11.22-3.59a28.55,28.55,0,0,0-9.7,1.67,24.4,24.4,0,0,0-8,4.6l-3.23-5.36a28.73,28.73,0,0,1,9.7-5.31,38,38,0,0,1,11.93-1.87Q2120,132.54,2125.53,137.75Zm-8.09,40.43a16.53,16.53,0,0,0,6.47-8v-8.69h-16.68q-13.64,0-13.64,9.5a8.69,8.69,0,0,0,3.54,7.33c2.35,1.79,5.66,2.68,9.9,2.68A18.9,18.9,0,0,0,2117.44,178.18Z"/><path class="cls-2" d="M2178.6,182.88a13.66,13.66,0,0,1-5,2.78,20.16,20.16,0,0,1-6.21,1q-7.49,0-11.53-4t-4-11.43V139h-9.5V133h9.5V121.32H2159V133h16.17V139H2159v31.74q0,4.75,2.37,7.23c1.59,1.65,3.86,2.47,6.83,2.47a13.21,13.21,0,0,0,4.29-.7,10.76,10.76,0,0,0,3.59-2Z"/><path class="cls-2" d="M2191.53,119.81a5,5,0,0,1-1.51-3.64,4.85,4.85,0,0,1,1.51-3.54,5.09,5.09,0,0,1,3.74-1.52,5.17,5.17,0,0,1,3.74,1.47,4.7,4.7,0,0,1,1.52,3.49,5.3,5.3,0,0,1-9,3.74Zm.1,13.14h7.18v53.16h-7.18Z"/><path class="cls-2" d="M2226.71,183.13a25.33,25.33,0,0,1-9.7-9.65,29.26,29.26,0,0,1,0-27.9,25,25,0,0,1,9.7-9.6,29.6,29.6,0,0,1,27.7,0,24.8,24.8,0,0,1,9.65,9.6,29.63,29.63,0,0,1,0,27.9,25.13,25.13,0,0,1-9.65,9.65,29.23,29.23,0,0,1-27.7,0Zm24-5.46a18,18,0,0,0,7-7.32,24.38,24.38,0,0,0,0-21.63,18,18,0,0,0-7-7.33,21.29,21.29,0,0,0-20.32,0,18.31,18.31,0,0,0-7.08,7.33,24,24,0,0,0,0,21.63,18.29,18.29,0,0,0,7.08,7.32,21.29,21.29,0,0,0,20.32,0Z"/><path class="cls-2" d="M2325.21,138.35q5.91,5.82,5.91,16.94v30.82H2324V156q0-8.28-4.15-12.63T2308,139q-8.59,0-13.6,5.11t-5,14.1v27.89h-7.18V133h6.88v9.8a20,20,0,0,1,8.13-7.53,26.13,26.13,0,0,1,12.08-2.68Q2319.3,132.54,2325.21,138.35Z"/></g></svg>