<svg width="32" height="32" viewBox="0 0 32 32" fill="none" xmlns="http://www.w3.org/2000/svg">
<path d="M15.1113 7.11133H7.50634C6.93006 7.11133 6.37739 7.34025 5.96991 7.74774C5.56242 8.15522 5.3335 8.70789 5.3335 9.28417V24.494C5.3335 25.0703 5.56242 25.623 5.96991 26.0305C6.37739 26.438 6.93006 26.6669 7.50634 26.6669H22.7162C23.2925 26.6669 23.8452 26.438 24.2526 26.0305C24.6601 25.623 24.889 25.0703 24.889 24.494V16.8891" stroke="#25282B" stroke-width="2" stroke-linecap="round" stroke-linejoin="round"/>
<path d="M23.0194 5.95901C23.42 5.55834 23.9635 5.33325 24.5301 5.33325C25.0967 5.33325 25.6401 5.55834 26.0408 5.95901C26.4415 6.35968 26.6666 6.9031 26.6666 7.46973C26.6666 8.03636 26.4415 8.57978 26.0408 8.98045L16.4729 18.5483L12.4443 19.5555L13.4515 15.5269L23.0194 5.95901Z" stroke="#25282B" stroke-width="2" stroke-linecap="round" stroke-linejoin="round"/>
</svg>
