<?xml version="1.0" standalone="no"?>
<!DOCTYPE svg PUBLIC "-//W3C//DTD SVG 20010904//EN"
 "http://www.w3.org/TR/2001/REC-SVG-20010904/DTD/svg10.dtd">
<svg version="1.0" xmlns="http://www.w3.org/2000/svg"
 width="501.000000pt" height="501.000000pt" viewBox="0 0 501.000000 501.000000"
 preserveAspectRatio="xMidYMid meet">
<metadata>
Created by potrace 1.11, written by Peter Selinger 2001-2013
</metadata>
<g transform="translate(0.000000,501.000000) scale(0.100000,-0.100000)"
fill="#000000" stroke="none">
<path d="M2547 4155 c-1 -2 -42 -5 -92 -9 -128 -9 -172 -17 -335 -60 -55 -15
-180 -65 -261 -106 -364 -180 -639 -476 -795 -855 -39 -96 -91 -287 -100 -370
-3 -27 -8 -53 -10 -57 -3 -4 -20 2 -39 13 -123 73 -315 63 -488 -25 -112 -57
-185 -112 -284 -213 -116 -117 -115 -114 -47 -160 31 -21 61 -43 67 -48 55
-49 51 -50 146 45 167 167 335 243 462 210 73 -20 174 -129 184 -200 11 -80
17 -112 21 -134 3 -11 7 -32 10 -46 15 -80 85 -271 139 -375 84 -163 168 -279
300 -411 176 -177 354 -296 560 -373 33 -13 69 -27 80 -31 11 -5 34 -12 50
-16 17 -4 35 -9 40 -10 55 -18 157 -37 248 -48 477 -54 945 100 1304 430 145
133 289 328 373 509 33 72 104 277 113 330 3 17 10 55 16 85 5 30 12 75 15 99
15 120 142 226 266 222 92 -3 182 -75 248 -199 l32 -60 105 37 c60 20 105 42
105 49 0 17 -45 106 -83 162 -16 25 -58 73 -93 106 -149 145 -339 177 -530 90
-35 -16 -54 -21 -55 -13 0 7 -2 19 -4 27 -1 8 -6 33 -9 54 -22 136 -101 363
-167 484 -147 266 -371 496 -624 642 -212 123 -459 200 -683 216 -117 8 -182
11 -185 9z"/>
</g>
</svg>
